<svg width="32" height="32" viewBox="0 0 32 32" xmlns="http://www.w3.org/2000/svg"><g fill="none" fill-rule="evenodd"><circle fill="#FFF" cx="16" cy="16" r="16"/><circle fill="red" opacity=".7" cx="16" cy="16" r="16"/><circle fill="#0F0" opacity=".7" cx="16" cy="16" r="16"/><circle fill="#00F" opacity=".7" cx="16" cy="16" r="16"/><path d="M15.1151079,20.4935827 C15.6330935,20.4935827 16.1978417,20.3065324 16.8093525,19.9324317 C17.4208633,19.5583309 18.1366906,18.9684029 18.9568345,18.1626475 L18.9568345,18.1626475 L18.9568345,16.3281151 C18.1798561,17.148259 17.5107914,17.7921439 16.9496403,18.2597698 C16.3884892,18.7273957 15.9784173,18.9612086 15.7194245,18.9612086 C15.6330935,18.9612086 15.557554,18.9000576 15.4928058,18.7777554 C15.4280576,18.6554532 15.3956835,18.5079712 15.3956835,18.3353094 C15.3956835,17.9612086 15.6330935,17.0835108 16.1079137,15.7022158 C16.323741,15.0835108 16.4316547,14.5511367 16.4316547,14.1050935 C16.4316547,13.5871079 16.2877698,13.148259 16,12.7885468 C15.7122302,12.4288345 15.3741007,12.2489784 14.9856115,12.2489784 C14.5395683,12.2489784 13.9208633,12.5224721 13.1294964,13.0694595 C12.8417266,13.2762941 12.2733813,13.7222248 11.4244604,14.4072518 L11.4244604,14.4072518 L11.4244604,14.0403453 C11.4244604,13.3191223 11.2668615,12.7515638 10.9516637,12.33767 C10.693795,12.0195495 10.4072617,11.8604892 10.0920638,11.8604892 C9.6763714,11.8604892 9.18558903,12.0619843 8.61971673,12.4649744 C8.05384442,12.8679645 7.28372302,13.56575 6.30935252,14.5583309 C6.42446043,14.0978993 6.53597122,13.6976632 6.64388489,13.3576228 C6.75179856,13.0175823 6.89928058,12.5904802 7.08633094,12.0763165 L7.08633094,12.0763165 L7.21582734,11.7741583 L5.3381295,11.7741583 C4.90647482,12.9481691 4.57553957,14.0078588 4.34532374,14.9532275 C4.11510791,15.8985962 4,16.6734388 4,17.2777554 L4,17.2777554 L4,17.2901482 C4.00071072,17.4975698 4.01829586,17.9502734 4.05277653,18.648259 C4.08796088,19.3604892 4.13365558,19.9540144 4.18986061,20.4288345 L4.18986061,20.4288345 L5.81294964,20.4288345 L5.81294964,16.6734388 C6.8459982,15.7094101 7.59532374,15.0331511 8.06092626,14.6446619 C8.6863759,14.1266763 9.11555755,13.8676835 9.34847122,13.8676835 C9.59577338,13.8676835 9.71942446,14.0547338 9.71942446,14.4288345 C9.71942446,15.0475396 9.54833633,16.0475396 9.20616007,17.4288345 C9.1799955,17.5301295 9.14662752,17.6568432 9.10605612,17.8089755 L9.09481259,17.8510964 C8.95013237,18.3926101 8.71948741,19.2374676 8.4028777,20.3856691 L8.4028777,20.3856691 L10.2158273,20.3856691 C10.5179856,19.1626475 10.7302158,18.2705612 10.852518,17.7094101 C10.9748201,17.148259 11.057554,16.7094101 11.1007194,16.3928633 L11.1007194,16.3928633 L11.4244604,16.0691223 C11.8765737,15.6806331 12.3358813,15.2921439 12.8023831,14.9036547 C13.6483813,14.2130072 14.1661421,13.8676835 14.3556655,13.8676835 C14.5598022,13.8676835 14.6618705,13.9971799 14.6618705,14.2561727 C14.6618705,14.5439424 14.4172662,15.4216403 13.9280576,16.8892662 C13.7122302,17.5367482 13.6043165,18.1050935 13.6043165,18.5943022 C13.6043165,18.9827914 13.6906475,19.3496978 13.8633094,19.6950216 C14.1366906,20.2273957 14.5539568,20.4935827 15.1151079,20.4935827 Z M21.5467626,20.5367482 C23.6330935,20.5367482 25.7841727,19.7381871 28,18.1410647 L28,18.1410647 L28,16.3281151 C26.8633094,17.3209209 25.8561151,18.0367482 24.9784173,18.4755971 C24.1007194,18.914446 23.2302158,19.1338705 22.3669065,19.1338705 C21.8633094,19.1338705 21.4964029,18.9108489 21.2661871,18.4648058 C21.1079137,18.1626475 21.028777,17.766964 21.028777,17.2777554 L21.028777,17.2777554 L21.028777,17.1914245 L21.4820144,16.9971799 C22.676259,16.5079712 23.5395683,16.0691223 24.0719424,15.6806331 C25.0791367,14.9468201 25.5827338,14.090705 25.5827338,13.1122878 C25.5827338,12.0187626 25.0071942,11.472 23.8561151,11.472 C22.6330935,11.472 21.5539568,12.0799137 20.618705,13.295741 C19.6834532,14.5115683 19.2158273,15.9036547 19.2158273,17.472 C19.2158273,18.2633669 19.4136691,18.972 19.8093525,19.5978993 C20.205036,20.2237986 20.7841727,20.5367482 21.5467626,20.5367482 Z M21.2446043,15.766964 C21.4172662,14.9755971 21.7482014,14.2885468 22.2374101,13.7058129 C22.7266187,13.1230791 23.2086331,12.8317122 23.6834532,12.8317122 C24.0143885,12.8317122 24.1798561,12.9899856 24.1798561,13.3065324 C24.1798561,13.7381871 23.9136691,14.1734388 23.381295,14.6122878 C22.8489209,15.0511367 22.1366906,15.4360288 21.2446043,15.766964 Z" fill="#FFF" fill-rule="nonzero"/></g></svg>