<svg width="32" height="32" viewBox="0 0 32 32" xmlns="http://www.w3.org/2000/svg"><g fill="none" fill-rule="evenodd"><circle fill="#000" cx="16" cy="16" r="16"/><path d="M18.24,15.04 L18.24,16 L17.6,16 L17.6,15.04 L18.24,15.04 Z M17.6,15.04 L17.6,16 L14.4,16 L14.4,15.04 L17.6,15.04 Z M10.56,15.04 L10.56,16 L10.24,16 L10.24,15.04 L10.56,15.04 Z M10.24,15.04 L10.24,16 L6.72,16 L6.72,15.04 L10.24,15.04 Z M18.24,11.2 L18.24,15.04 L17.6,15.04 L17.6,11.2 L18.24,11.2 Z M17.6,11.2 L17.6,15.04 L14.4,15.04 L14.4,12.8 L14.08,12.8 L14.08,11.2 L17.6,11.2 Z M11.52,11.2 L11.52,12.8 L10.56,12.8 L10.56,15.04 L10.24,15.04 L10.24,11.2 L11.52,11.2 Z M10.24,11.2 L10.24,15.04 L6.72,15.04 L6.72,11.2 L10.24,11.2 Z M14.08,11.2 L14.08,12.8 L12.8,12.8 L12.8,11.2 L14.08,11.2 Z M12.8,11.2 L12.8,12.8 L11.52,12.8 L11.52,11.2 L12.8,11.2 Z M18.24,7.68 L18.24,11.2 L17.6,11.2 L17.6,7.68 L18.24,7.68 Z M17.6,7.68 L17.6,11.2 L14.08,11.2 L14.08,7.68 L17.6,7.68 Z M14.08,7.68 L14.08,11.2 L12.8,11.2 L12.8,7.68 L14.08,7.68 Z M12.8,7.68 L12.8,11.2 L11.52,11.2 L11.52,7.68 L12.8,7.68 Z M11.52,7.68 L11.52,11.2 L10.24,11.2 L10.24,9.6 L10.56,9.6 L10.56,7.68 L11.52,7.68 Z M6.72,7.68 L6.72,9.6 L10.24,9.6 L10.24,11.2 L6.72,11.2 L6.72,9.6 L4.48,9.6 L4.48,7.68 L6.72,7.68 Z M4.48,7.68 L4.48,9.6 L3.52,9.6 L3.52,7.68 L4.48,7.68 Z M3.52,7.68 L3.52,9.6 L2.24,9.6 L2.24,7.68 L3.52,7.68 Z M2.24,7.68 L2.24,9.6 L1.6,9.6 L1.6,7.68 L2.24,7.68 Z M1.6,7.68 L1.6,9.6 L1.28,9.6 L1.28,7.68 L1.6,7.68 Z M1.28,7.68 L1.28,9.6 L0,9.6 L0,7.68 L1.28,7.68 Z M18.24,6.4 L18.24,7.68 L17.6,7.68 L17.6,6.4 L18.24,6.4 Z M17.6,6.4 L17.6,7.68 L14.08,7.68 L14.08,6.4 L17.6,6.4 Z M14.08,6.4 L14.08,7.68 L12.8,7.68 L12.8,6.4 L14.08,6.4 Z M12.8,6.4 L12.8,7.68 L11.52,7.68 L11.52,6.4 L12.8,6.4 Z M11.52,6.4 L11.52,7.68 L10.56,7.68 L10.56,6.4 L11.52,6.4 Z M10.24,5.76 L10.24,6.4 L6.72,6.4 L6.72,7.68 L4.48,7.68 L4.48,5.76 L10.24,5.76 Z M4.48,5.76 L4.48,7.68 L3.52,7.68 L3.52,5.76 L4.48,5.76 Z M3.52,5.76 L3.52,7.68 L2.24,7.68 L2.24,6.4 L2.56,6.4 L2.56,5.76 L3.52,5.76 Z M2.24,6.4 L2.24,7.68 L1.6,7.68 L1.6,6.4 L2.24,6.4 Z M1.6,6.4 L1.6,7.68 L1.28,7.68 L1.28,6.4 L1.6,6.4 Z M1.28,6.4 L1.28,7.68 L0,7.68 L0,6.4 L1.28,6.4 Z M21.76,5.76 L21.76,6.4 L20.16,6.4 L20.16,5.76 L21.76,5.76 Z M20.16,5.76 L20.16,6.4 L18.24,6.4 L18.24,5.76 L20.16,5.76 Z M10.56,5.76 L10.56,6.4 L10.24,6.4 L10.24,5.76 L10.56,5.76 Z M21.76,3.2 L21.76,5.76 L20.16,5.76 L20.16,3.2 L21.76,3.2 Z M20.16,3.2 L20.16,5.76 L18.24,5.76 L18.24,3.2 L20.16,3.2 Z M10.56,0.64 L10.56,5.76 L10.24,5.76 L10.24,0.64 L10.56,0.64 Z M10.24,0.64 L10.24,5.76 L4.48,5.76 L4.48,5.12 L4.8,5.12 L4.799,4.48 L4.48,4.48 L4.48,3.2 L6.72,3.2 L6.72,0.64 L10.24,0.64 Z M4.48,5.12 L4.48,5.76 L3.52,5.76 L3.52,5.12 L4.48,5.12 Z M3.52,5.12 L3.52,5.76 L2.56,5.76 L2.56,5.12 L3.52,5.12 Z M4.48,3.2 L4.48,4.48 L3.52,4.48 L3.52,3.2 L4.48,3.2 Z M3.52,3.2 L3.52,4.48 L2.56,4.48 L2.56,3.2 L3.52,3.2 Z M10.56,0 L10.56,0.64 L10.24,0.64 L10.24,0 L10.56,0 Z M10.24,0 L10.24,0.64 L6.72,0.64 L6.72,0 L10.24,0 Z" transform="translate(5.12 8)" fill="#FFF"/></g></svg>