<svg width="32" height="32" viewBox="0 0 32 32" xmlns="http://www.w3.org/2000/svg"><g fill="none" fill-rule="evenodd"><circle fill="#5000FF" cx="16" cy="16" r="16"/><g transform="translate(5.6 5.6)"><path d="M3.80269263,8.319 L4.08562073e-14,4.51687158 L2.94156421,1.57530737 L6.74469263,5.379 L6.74469263,0 L10.9046926,0 L10.9036926,5.379 L14.707821,1.57530737 L17.6493853,4.51687158 L13.8456926,8.319 L19.2246926,8.32 L19.2246926,12.48 L13.8446926,12.479 L17.6493853,16.2831284 L14.707821,19.2246926 L10.9036926,15.42 L10.903,15.425 L6.744,15.425 L6.74469263,15.42 L6.739,15.425 L3.79941263,15.42528 L3.799,12.483 L3.80369263,12.479 L3.799,12.479 L3.79941263,8.32 L3.80269263,8.319 Z" transform="translate(1.575)" fill="#D6D6D6"/><path d="M12.48,0 L12.48,4.16 L12.479,4.159 L12.48,12.48 L8.32,12.48 L8.319,7.101 L4.51687158,10.9046926 L1.57530737,7.96312842 L5.378,4.159 L0,4.16 L0,0 L12.48,0 Z" transform="translate(0 8.32)" fill="#FFF"/></g></g></svg>