<svg width="256" height="256" viewBox="0 0 256 256" xmlns="http://www.w3.org/2000/svg"><g fill="none" fill-rule="evenodd"><circle fill="#5000FF" cx="128" cy="128" r="128"/><g transform="translate(44.8 44.8)"><path d="M87.237541,123.40224 L53.957,123.402 L53.957541,123.371 L53.926,123.402 L30.395301,123.40224 L30.395,99.869 L30.425541,99.839 L30.395,99.839 L30.395301,66.56 L30.424541,66.559 L3.44613227e-13,36.1349726 L23.5325137,12.602459 L53.957541,43.028 L53.957541,0 L87.237541,0 L87.237541,43.027 L117.662568,12.602459 L141.195082,36.1349726 L110.769541,66.559 L153.797541,66.56 L153.797541,99.84 L110.768541,99.839 L141.195082,130.265027 L117.662568,153.797541 L87.237541,123.372 L87.237541,123.40224 Z" transform="translate(12.602)" fill="#D6D6D6"/><path d="M99.84,99.84 L66.56,99.84 L66.559,56.812 L36.1349726,87.237541 L12.602459,63.7050274 L43.027,33.279 L0,33.28 L0,0 L99.84,0 L99.84,99.84 Z" transform="translate(0 66.56)" fill="#FFF"/></g></g></svg>